{
    "asset" : {
        "generator" : "Khronos glTF Blender I/O v1.7.33",
        "version" : "2.0"
    },
    "scene" : 0,
    "scenes" : [
        {
            "name" : "Scene",
            "nodes" : [
                0,
                1,
                2
            ]
        }
    ],
    "nodes" : [
        {
            "mesh" : 0,
            "name" : "Walls",
            "translation" : [
                0,
                1.0046415328979492,
                0
            ]
        },
        {
            "mesh" : 1,
            "name" : "WideDoorframe",
            "translation" : [
                0.9643611907958984,
                1.1788488626480103,
                -0.3518351912498474
            ]
        },
        {
            "mesh" : 2,
            "name" : "NarrowDoorframe",
            "rotation" : [
                0,
                0.7071068286895752,
                0,
                0.7071068286895752
            ],
            "translation" : [
                -0.10624563694000244,
                1.1788488626480103,
                -1.725304126739502
            ]
        }
    ],
    "materials" : [
        {
            "doubleSided" : true,
            "name" : "Material",
            "pbrMetallicRoughness" : {
                "baseColorFactor" : [
                    0.800000011920929,
                    0.800000011920929,
                    0.800000011920929,
                    1
                ],
                "metallicFactor" : 0,
                "roughnessFactor" : 0.4000000059604645
            }
        }
    ],
    "meshes" : [
        {
            "name" : "Cube",
            "primitives" : [
                {
                    "attributes" : {
                        "POSITION" : 0,
                        "NORMAL" : 1,
                        "TEXCOORD_0" : 2
                    },
                    "indices" : 3,
                    "material" : 0
                }
            ]
        },
        {
            "name" : "Cube.001",
            "primitives" : [
                {
                    "attributes" : {
                        "POSITION" : 4,
                        "NORMAL" : 5,
                        "TEXCOORD_0" : 6
                    },
                    "indices" : 7
                }
            ]
        },
        {
            "name" : "Cube.002",
            "primitives" : [
                {
                    "attributes" : {
                        "POSITION" : 8,
                        "NORMAL" : 9,
                        "TEXCOORD_0" : 10
                    },
                    "indices" : 11
                }
            ]
        }
    ],
    "accessors" : [
        {
            "bufferView" : 0,
            "componentType" : 5126,
            "count" : 104,
            "max" : [
                1,
                1.7959034442901611,
                1.5078192949295044
            ],
            "min" : [
                -0.4334539771080017,
                -1,
                -1.7664122581481934
            ],
            "type" : "VEC3"
        },
        {
            "bufferView" : 1,
            "componentType" : 5126,
            "count" : 104,
            "type" : "VEC3"
        },
        {
            "bufferView" : 2,
            "componentType" : 5126,
            "count" : 104,
            "type" : "VEC2"
        },
        {
            "bufferView" : 3,
            "componentType" : 5123,
            "count" : 204,
            "type" : "SCALAR"
        },
        {
            "bufferView" : 4,
            "componentType" : 5126,
            "count" : 92,
            "max" : [
                0.03896522521972656,
                1.134559988975525,
                1.1326496601104736
            ],
            "min" : [
                -0.027542266994714737,
                -1.2064484357833862,
                -0.006946647074073553
            ],
            "type" : "VEC3"
        },
        {
            "bufferView" : 5,
            "componentType" : 5126,
            "count" : 92,
            "type" : "VEC3"
        },
        {
            "bufferView" : 6,
            "componentType" : 5126,
            "count" : 92,
            "type" : "VEC2"
        },
        {
            "bufferView" : 7,
            "componentType" : 5123,
            "count" : 180,
            "type" : "SCALAR"
        },
        {
            "bufferView" : 8,
            "componentType" : 5126,
            "count" : 99,
            "max" : [
                0.03896522521972656,
                1.1085457801818848,
                1.08539879322052
            ],
            "min" : [
                -0.027542266994714737,
                -1.2064484357833862,
                -0.006946647074073553
            ],
            "type" : "VEC3"
        },
        {
            "bufferView" : 9,
            "componentType" : 5126,
            "count" : 99,
            "type" : "VEC3"
        },
        {
            "bufferView" : 10,
            "componentType" : 5126,
            "count" : 99,
            "type" : "VEC2"
        },
        {
            "bufferView" : 11,
            "componentType" : 5123,
            "count" : 180,
            "type" : "SCALAR"
        }
    ],
    "bufferViews" : [
        {
            "buffer" : 0,
            "byteLength" : 1248,
            "byteOffset" : 0
        },
        {
            "buffer" : 0,
            "byteLength" : 1248,
            "byteOffset" : 1248
        },
        {
            "buffer" : 0,
            "byteLength" : 832,
            "byteOffset" : 2496
        },
        {
            "buffer" : 0,
            "byteLength" : 408,
            "byteOffset" : 3328
        },
        {
            "buffer" : 0,
            "byteLength" : 1104,
            "byteOffset" : 3736
        },
        {
            "buffer" : 0,
            "byteLength" : 1104,
            "byteOffset" : 4840
        },
        {
            "buffer" : 0,
            "byteLength" : 736,
            "byteOffset" : 5944
        },
        {
            "buffer" : 0,
            "byteLength" : 360,
            "byteOffset" : 6680
        },
        {
            "buffer" : 0,
            "byteLength" : 1188,
            "byteOffset" : 7040
        },
        {
            "buffer" : 0,
            "byteLength" : 1188,
            "byteOffset" : 8228
        },
        {
            "buffer" : 0,
            "byteLength" : 792,
            "byteOffset" : 9416
        },
        {
            "buffer" : 0,
            "byteLength" : 360,
            "byteOffset" : 10208
        }
    ],
    "buffers" : [
        {
            "byteLength" : 10568,
            "uri" : "data:application/octet-stream;base64,"
        }
    ]
}
